<svg width="589" height="590" viewBox="0 0 589 590" fill="none" xmlns="http://www.w3.org/2000/svg">
<path d="M223.5 263C222.422 263 221.548 262.126 221.548 261.048V241.952C221.548 240.874 222.422 240 223.5 240C224.578 240 225.452 240.874 225.452 241.952V261.048C225.452 262.126 224.578 263 223.5 263ZM213.952 253.452C212.874 253.452 212 252.578 212 251.5C212 250.422 212.874 249.548 213.952 249.548H233.048C234.126 249.548 235 250.422 235 251.5C235 252.578 234.126 253.452 233.048 253.452H213.952Z" fill="white"/>
<path d="M184.766 1.78602C189.462 5.17673 193.56 9.02388 195.422 14.6102C196.257 20.6576 195.357 24.7084 192.004 29.786C190.422 31.6102 190.422 31.6102 185.422 35.6102C185.092 48.4802 184.762 61.3502 184.422 74.6102C218.412 74.6102 252.402 74.6102 287.422 74.6102C287.264 51.7531 287.264 51.7531 287.062 28.8964C287.043 24.4711 287.043 24.4711 287.04 22.398C287.034 20.9531 287.02 19.5083 287 18.0635C286.97 15.872 286.966 13.6818 286.968 11.4901C286.959 10.2555 286.95 9.0208 286.941 7.74873C287.514 4.01189 288.418 2.83788 291.422 0.610238C294.422 0.110238 294.422 0.110238 297.422 0.610238C300.426 2.83788 301.33 4.01189 301.903 7.74873C301.894 8.98339 301.885 10.218 301.876 11.4901C301.876 12.1845 301.877 12.8788 301.877 13.5942C301.874 15.8344 301.844 18.0733 301.812 20.3134C301.807 21.6993 301.803 23.0852 301.8 24.4711C301.779 29.6009 301.724 34.7306 301.672 39.8602C301.589 51.3277 301.507 62.7952 301.422 74.6102C335.412 74.6102 369.402 74.6102 404.422 74.6102C404.224 52.1271 404.224 52.1271 403.971 29.6447C403.949 25.2874 403.949 25.2874 403.945 23.2448C403.937 21.8241 403.919 20.4034 403.894 18.983C403.857 16.8254 403.852 14.6697 403.854 12.5118C403.843 11.2972 403.832 10.0825 403.821 8.83102C404.596 4.67727 406.152 3.2003 409.422 0.610238C412.484 0.047738 412.484 0.047738 415.422 0.610238C418.42 2.84317 419.33 4.01205 419.903 7.74873C419.894 8.98339 419.885 10.218 419.876 11.4901C419.877 12.1735 419.877 12.8568 419.878 13.5608C419.875 15.8122 419.844 18.0622 419.812 20.3134C419.805 21.8771 419.799 23.4408 419.795 25.0045C419.78 29.1147 419.741 33.2243 419.697 37.3342C419.656 41.5303 419.637 45.7265 419.617 49.9227C419.574 58.1522 419.506 66.3811 419.422 74.6102C420.239 74.6014 421.056 74.5925 421.898 74.5833C429.636 74.5029 437.373 74.4421 445.111 74.403C449.088 74.3822 453.065 74.354 457.042 74.3085C460.887 74.2647 464.732 74.241 468.577 74.2307C470.037 74.2234 471.497 74.2091 472.956 74.1873C486.676 73.9912 495.852 76.9114 506.074 86.0946C513.952 94.1929 515.992 105.092 515.988 115.993C515.963 117.362 515.937 118.73 515.91 120.099C515.901 121.537 515.894 122.976 515.889 124.415C515.87 128.155 515.821 131.894 515.765 135.634C515.714 139.469 515.691 143.304 515.666 147.14C515.613 154.63 515.528 162.12 515.422 169.61C520.725 169.64 526.025 169.625 531.328 169.568C533.13 169.554 534.932 169.554 536.734 169.566C539.332 169.581 541.926 169.551 544.523 169.513C545.324 169.527 546.124 169.541 546.948 169.556C550.374 169.468 552.56 169.358 555.209 167.06C556.811 165.215 556.811 165.215 558.148 163.299C560.593 160.058 563.584 158.884 567.52 158.298C573.278 157.982 577.699 159.301 582.422 162.61C587.32 167.767 588.893 172 588.738 179.009C588.083 184.4 585.834 188.235 581.984 191.985C576.588 195.407 571.783 196.649 565.422 195.61C559.924 193.268 557.204 190.338 553.422 185.61C540.882 185.28 528.342 184.95 515.422 184.61C515.422 218.6 515.422 252.59 515.422 287.61C537.95 287.452 537.95 287.452 560.478 287.25C564.839 287.232 564.839 287.232 566.883 287.228C568.307 287.222 569.731 287.208 571.155 287.188C573.315 287.159 575.474 287.155 577.634 287.156C578.851 287.147 580.068 287.138 581.321 287.129C585.032 287.705 586.199 288.636 588.422 291.61C588.984 294.548 588.984 294.548 588.422 297.61C585.844 300.855 584.365 302.432 580.239 303.211C579.042 303.2 577.845 303.189 576.612 303.178C575.6 303.179 575.6 303.179 574.568 303.18C572.397 303.176 570.229 303.138 568.059 303.099C566.713 303.091 565.368 303.086 564.023 303.083C559.052 303.057 554.08 302.987 549.109 302.923C537.993 302.82 526.876 302.716 515.422 302.61C515.422 336.27 515.422 369.93 515.422 404.61C537.576 404.412 537.576 404.412 559.729 404.16C564.023 404.137 564.023 404.137 566.036 404.133C567.436 404.125 568.836 404.108 570.235 404.082C572.362 404.046 574.486 404.041 576.612 404.043C578.407 404.026 578.407 404.026 580.239 404.009C584.365 404.788 585.844 406.365 588.422 409.61C588.984 412.673 588.984 412.673 588.422 415.61C586.199 418.584 585.032 419.516 581.321 420.091C579.496 420.078 579.496 420.078 577.634 420.064C576.96 420.065 576.287 420.065 575.593 420.066C573.374 420.063 571.156 420.032 568.938 420.001C567.396 419.993 565.855 419.988 564.314 419.984C560.263 419.968 556.212 419.929 552.161 419.885C548.026 419.844 543.89 419.826 539.754 419.806C531.643 419.763 523.532 419.694 515.422 419.61C515.429 420.39 515.435 421.169 515.442 421.973C515.502 429.357 515.548 436.741 515.577 444.126C515.593 447.921 515.614 451.717 515.648 455.512C515.681 459.182 515.699 462.852 515.707 466.522C515.712 467.915 515.723 469.308 515.739 470.7C515.893 484.369 513.785 494.517 504.453 504.774C495.683 513.259 486.055 516.26 474 516.177C472.604 516.151 471.208 516.125 469.812 516.099C468.35 516.089 466.887 516.082 465.425 516.077C461.617 516.058 457.81 516.009 454.003 515.954C450.101 515.902 446.199 515.879 442.297 515.854C434.671 515.801 427.047 515.716 419.422 515.61C419.431 516.466 419.44 517.321 419.449 518.203C419.529 526.266 419.59 534.329 419.629 542.392C419.65 546.538 419.678 550.683 419.724 554.828C419.767 558.829 419.791 562.829 419.801 566.83C419.809 568.356 419.823 569.883 419.845 571.409C419.874 573.547 419.878 575.684 419.876 577.822C419.885 579.039 419.894 580.256 419.903 581.51C419.326 585.23 418.425 586.402 415.422 588.61C411.922 589.173 411.922 589.173 408.422 588.61C405.639 585.93 404.522 584.273 403.941 580.427C403.95 579.231 403.959 578.034 403.968 576.8C403.967 576.126 403.967 575.451 403.966 574.756C403.969 572.586 404 570.417 404.031 568.247C404.037 566.902 404.041 565.557 404.043 564.211C404.064 559.24 404.12 554.269 404.172 549.298C404.254 538.181 404.337 527.064 404.422 515.61C370.762 515.61 337.102 515.61 302.422 515.61C302.62 537.764 302.62 537.764 302.872 559.918C302.895 564.211 302.895 564.211 302.899 566.224C302.907 567.624 302.924 569.024 302.95 570.424C302.986 572.55 302.991 574.674 302.99 576.8C303.001 577.997 303.012 579.194 303.023 580.427C302.244 584.552 300.661 586.029 297.422 588.61C294.422 589.235 294.422 589.235 291.422 588.61C288.183 586.029 286.6 584.552 285.821 580.427C285.832 579.231 285.843 578.034 285.854 576.8C285.853 575.788 285.853 575.788 285.852 574.756C285.856 572.586 285.894 570.417 285.934 568.247C285.941 566.902 285.946 565.557 285.949 564.211C285.975 559.24 286.045 554.269 286.109 549.298C286.212 538.181 286.316 527.064 286.422 515.61C252.762 515.61 219.102 515.61 184.422 515.61C184.422 528.48 184.422 541.35 184.422 554.61C186.072 555.27 187.722 555.93 189.422 556.61C193.989 561.569 195.903 565.546 195.738 572.231C195.038 577.496 192.731 581.367 188.922 584.985C182.765 588.987 177.739 589.396 170.422 588.61C165.522 586.294 162.566 582.922 159.422 578.61C157.949 574.042 157.663 569.34 158.422 564.61C160.351 560.872 162.7 557.499 166.49 555.542C169.509 552.523 169.025 549.044 169.031 545.005C169.048 544.166 169.064 543.326 169.081 542.462C169.13 539.782 169.151 537.103 169.172 534.423C169.2 532.606 169.23 530.789 169.262 528.972C169.336 524.518 169.385 520.064 169.422 515.61C168.63 515.617 167.838 515.624 167.022 515.63C159.519 515.691 152.017 515.736 144.515 515.766C140.659 515.781 136.803 515.802 132.947 515.837C129.219 515.869 125.491 515.887 121.762 515.895C120.347 515.9 118.932 515.911 117.517 515.927C104.54 516.071 94.318 514.494 84.4219 505.61C77.12 497.059 73.2861 488.447 73.3083 477.168C73.3085 475.246 73.3085 475.246 73.3086 473.286C73.3137 471.898 73.3189 470.51 73.3242 469.122C73.3261 467.694 73.3275 466.266 73.3285 464.839C73.3323 461.092 73.3421 457.346 73.3532 453.599C73.3635 449.771 73.368 445.944 73.373 442.116C73.3838 434.614 73.4008 427.112 73.4219 419.61C68.0825 419.605 62.7452 419.638 57.4062 419.708C55.5906 419.726 53.7748 419.734 51.959 419.73C49.3466 419.727 46.737 419.763 44.125 419.806C42.9092 419.792 42.9092 419.792 41.6688 419.778C39.4295 419.836 37.5614 419.943 35.4219 420.61C32.9177 423.442 32.9177 423.442 31.4219 426.61C26.6139 430.615 21.058 431.237 14.9727 431.001C11.3174 430.441 9.17683 429.029 6.42188 426.61C5.67937 425.971 4.93687 425.331 4.17188 424.673C0.273791 420.079 -0.0746986 415.22 0.0429688 409.399C0.829625 403.609 3.9134 400.082 7.98438 396.11C14.0119 393.48 21.1408 393.458 27.3594 395.735C30.4219 397.61 30.4219 397.61 35.4219 403.61C47.9619 403.94 60.5019 404.27 73.4219 404.61C73.4219 370.95 73.4219 337.29 73.4219 302.61C51.2679 302.808 51.2679 302.808 29.1145 303.061C24.8207 303.083 24.8207 303.083 22.8078 303.087C21.4079 303.095 20.0081 303.113 18.6084 303.138C16.4823 303.175 14.3581 303.18 12.2317 303.178C11.0348 303.189 9.83787 303.2 8.60469 303.211C4.47912 302.432 2.99935 300.855 0.421875 297.61C-0.140625 294.548 -0.140625 294.548 0.421875 291.61C2.64485 288.636 3.81206 287.705 7.5224 287.129C8.7393 287.138 9.95619 287.147 11.21 287.156C12.2366 287.155 12.2366 287.155 13.284 287.155C15.4919 287.158 17.6985 287.188 19.9062 287.22C21.2723 287.225 22.6383 287.23 24.0044 287.232C29.0604 287.253 34.1161 287.309 39.1719 287.36C56.1256 287.484 56.1256 287.484 73.4219 287.61C73.4219 253.62 73.4219 219.63 73.4219 184.61C50.8939 184.769 50.8939 184.769 28.3662 184.971C24.0044 184.989 24.0044 184.989 21.961 184.992C20.537 184.998 19.1129 185.012 17.689 185.033C15.529 185.062 13.3702 185.066 11.21 185.064C9.99307 185.073 8.77617 185.082 7.5224 185.091C3.80268 184.514 2.62694 183.616 0.421875 180.61C-0.129473 176.751 -0.314747 174.614 2.02887 171.42C5.23286 168.997 7.21556 169.127 11.21 169.156C12.2203 169.155 12.2203 169.155 13.2511 169.154C15.47 169.157 17.6876 169.188 19.9062 169.22C21.4475 169.227 22.9888 169.233 24.5301 169.237C28.5811 169.252 32.6315 169.291 36.6823 169.336C40.8181 169.377 44.9539 169.395 49.0898 169.415C57.2008 169.458 65.3113 169.526 73.4219 169.61C73.4174 168.853 73.413 168.097 73.4084 167.317C73.3682 160.153 73.3378 152.989 73.3183 145.825C73.3079 142.143 73.2938 138.461 73.271 134.778C73.2491 131.219 73.2373 127.659 73.2321 124.099C73.2267 122.094 73.2111 120.088 73.1953 118.083C73.1938 105.659 74.9019 94.0899 83.7969 84.7352C93.9356 75.4068 104.67 74.171 117.859 74.3173C119.35 74.3229 120.841 74.3271 122.332 74.3301C126.231 74.3415 130.13 74.3709 134.03 74.4042C138.721 74.4405 143.413 74.4541 148.105 74.4716C155.211 74.5006 162.316 74.5581 169.422 74.6102C169.422 61.7402 169.422 48.8702 169.422 35.6102C167.772 34.9502 166.122 34.2902 164.422 33.6102C162.875 31.9891 162.875 31.9891 161.672 30.1727C161.061 29.2775 161.061 29.2775 160.438 28.3641C157.757 23.7357 157.644 18.7892 158.422 13.6102C160.695 8.38189 164.137 3.69937 169.375 1.20789C174.573 -0.309906 179.839 -0.685485 184.766 1.78602ZM93.5469 96.5477C92.9926 97.1961 92.4383 97.8445 91.8672 98.5126C88.8119 102.947 88.1712 106.752 88.1646 112.088C88.1582 113.406 88.1517 114.723 88.1451 116.081C88.148 117.542 88.1511 119.003 88.1544 120.463C88.1507 122.016 88.1461 123.569 88.1407 125.122C88.1285 129.392 88.1288 133.662 88.1311 137.931C88.1315 142.535 88.1205 147.14 88.111 151.744C88.0944 160.765 88.0889 169.786 88.0878 178.808C88.0868 186.141 88.0827 193.474 88.0764 200.807C88.0587 221.594 88.0495 242.381 88.051 263.168C88.0511 264.289 88.0512 265.41 88.0513 266.565C88.0514 267.687 88.0514 268.809 88.0515 269.966C88.0523 288.153 88.0332 306.34 88.005 324.527C87.9763 343.199 87.9625 361.87 87.9642 380.541C87.9648 391.025 87.9593 401.509 87.9378 411.993C87.9196 420.919 87.9153 429.846 87.9288 438.772C87.9354 443.326 87.9355 447.88 87.9181 452.434C87.9024 456.605 87.9053 460.776 87.9227 464.948C87.9258 466.454 87.9221 467.961 87.911 469.468C87.8444 479.101 88.492 486.698 94.6719 494.423C103.003 501.05 110.419 501.184 120.636 501.118C122.191 501.123 123.747 501.129 125.302 501.137C129.565 501.154 133.828 501.146 138.091 501.133C142.693 501.124 147.295 501.138 151.897 501.149C160.908 501.167 169.919 501.163 178.93 501.151C186.254 501.142 193.579 501.141 200.903 501.145C202.467 501.146 202.467 501.146 204.063 501.147C206.181 501.149 208.299 501.15 210.417 501.151C230.277 501.163 250.138 501.15 269.998 501.128C287.036 501.11 304.073 501.113 321.111 501.132C340.899 501.153 360.687 501.162 380.475 501.149C382.586 501.148 384.696 501.147 386.807 501.145C387.845 501.145 388.884 501.144 389.954 501.144C397.268 501.14 404.582 501.146 411.896 501.155C420.812 501.167 429.727 501.164 438.642 501.142C443.19 501.132 447.738 501.128 452.286 501.141C456.452 501.153 460.617 501.146 464.783 501.125C466.287 501.121 467.792 501.123 469.296 501.132C478.928 501.19 486.447 500.48 494.234 494.423C500.795 485.988 500.996 477.578 500.93 467.269C500.934 465.712 500.941 464.155 500.949 462.598C500.965 458.335 500.957 454.073 500.945 449.81C500.936 445.207 500.95 440.604 500.961 436C500.978 426.989 500.975 417.978 500.963 408.967C500.954 401.643 500.953 394.319 500.957 386.995C500.958 385.431 500.958 385.431 500.959 383.835C500.96 381.717 500.962 379.598 500.963 377.48C500.974 357.621 500.961 337.763 500.94 317.904C500.922 300.866 500.925 283.829 500.943 266.791C500.965 247.002 500.973 227.212 500.961 207.422C500.96 205.312 500.958 203.202 500.957 201.091C500.957 200.053 500.956 199.015 500.955 197.945C500.952 190.63 500.958 183.315 500.967 176C500.978 167.085 500.975 158.171 500.954 149.257C500.943 144.709 500.939 140.161 500.953 135.613C500.964 131.449 500.958 127.285 500.937 123.121C500.932 121.616 500.934 120.11 500.944 118.605C500.997 109.687 500.793 102.69 494.711 95.622C494.162 95.185 493.613 94.748 493.047 94.2977C492.503 93.8479 491.959 93.398 491.398 92.9345C486.517 89.6638 482.701 88.2352 476.803 88.2299C476.16 88.2253 475.517 88.2206 474.855 88.2158C472.704 88.2039 470.554 88.2132 468.404 88.2226C466.845 88.2184 465.287 88.2129 463.728 88.2062C459.447 88.1918 455.166 88.196 450.885 88.2034C446.268 88.2081 441.65 88.1956 437.032 88.1854C427.987 88.1682 418.941 88.1674 409.895 88.1726C402.543 88.1766 395.191 88.1752 387.839 88.1699C386.793 88.1691 385.747 88.1684 384.67 88.1676C382.545 88.166 380.42 88.1645 378.295 88.163C358.364 88.1492 338.432 88.1547 318.501 88.1662C300.264 88.1761 282.028 88.1631 263.792 88.1392C245.07 88.1148 226.347 88.1052 207.625 88.1119C197.113 88.1154 186.601 88.1131 176.088 88.0956C167.139 88.0809 158.19 88.0802 149.241 88.0977C144.675 88.1062 140.109 88.1083 135.543 88.093C131.362 88.0792 127.181 88.0839 123 88.1033C121.489 88.107 119.977 88.1041 118.466 88.0937C108.568 88.0303 100.329 88.3544 93.5469 96.5477Z" fill="#050505"/>
<path d="M265.234 133.298C265.94 133.302 266.646 133.306 267.372 133.31C279.329 133.569 286.726 138.892 295.422 146.61C295.752 145.62 296.082 144.63 296.422 143.61C303.923 136.266 312.619 133.236 322.922 133.11C329.755 133.194 335.432 134.11 341.422 137.61C342.478 138.212 342.478 138.212 343.555 138.825C351.11 143.78 356.1 151.97 358.422 160.61C358.617 163.602 358.617 163.602 358.547 166.485C358.529 167.452 358.511 168.419 358.492 169.415C358.469 170.139 358.446 170.864 358.422 171.61C359.663 171.129 359.663 171.129 360.93 170.638C374.207 166.732 388.552 170.099 400.586 176.22C414.046 184.303 422.543 196.051 426.769 211.181C428.578 220.69 427.879 230.286 425.422 239.61C426.155 239.721 426.889 239.832 427.644 239.946C435.054 241.718 441.185 247.462 445.422 253.61C450.753 262.565 452.006 272.337 449.773 282.587C447.13 290.606 442.426 296.77 436.422 302.61C436.918 302.988 437.414 303.366 437.926 303.755C448.349 312.2 455.063 324.463 456.692 337.829C457.991 354.805 453.21 368.783 442.234 381.798C436.373 388.096 429.471 392.599 421.422 395.61C421.408 396.843 421.393 398.075 421.379 399.345C420.998 415.244 417.395 427.324 405.699 438.716C397.566 445.482 387.865 447.965 377.484 447.86C376.724 447.868 375.965 447.876 375.182 447.884C371.252 447.87 367.915 447.549 364.148 446.399C360.542 445.241 360.542 445.241 357.91 446.806C357.192 447.442 356.474 448.079 355.734 448.735C346.225 456.096 335.223 457.882 323.422 456.61C312.081 454.517 302.202 449.115 295.422 439.61C295.422 438.95 295.422 438.29 295.422 437.61C294.762 437.61 294.102 437.61 293.422 437.61C293.082 438.446 293.082 438.446 292.734 439.298C288.295 447.119 280.512 451.449 272.422 454.61C271.504 454.97 270.586 455.33 269.641 455.7C258.507 458.848 246.481 457.083 236.422 451.61C234.977 450.5 233.557 449.356 232.172 448.173C230.355 446.613 230.355 446.613 228.422 445.61C224.783 446.104 224.783 446.104 222.289 446.934C211 449.595 198.472 448.427 188.422 442.61C178.84 435.6 170.778 426.499 168.422 414.61C167.983 408.281 168.185 401.945 168.422 395.61C167.532 395.334 166.643 395.059 165.726 394.774C152.607 390.153 143.964 380.565 137.422 368.61C131.421 355.809 129.985 341.086 134.547 327.548C137.766 319.066 143.871 306.886 152.422 302.61C151.517 301.684 151.517 301.684 150.594 300.739C141.522 291.126 138.064 283.073 138.211 269.927C138.83 260.188 143.695 251.711 150.922 245.235C154.753 242.184 158.402 239.61 163.422 239.61C163.277 239.028 163.133 238.445 162.984 237.845C159.748 223.55 160.932 207.403 168.891 194.688C178.109 182.178 189.965 172.821 205.422 169.61C213.449 168.727 223.028 167.876 230.422 171.61C230.375 170.932 230.329 170.254 230.281 169.556C229.881 159.246 232.812 151.613 239.363 143.653C246.491 136.579 255.29 133.217 265.234 133.298ZM248.422 156.235C245.012 161.988 244.749 167.045 245.422 173.61C246.435 176.512 247.826 178.996 249.422 181.61C251.464 185.258 251.464 185.258 251.109 188.235C250.422 190.61 250.422 190.61 249.422 192.61C246.654 193.553 245.265 193.92 242.422 193.61C239.791 192.31 237.405 190.769 234.937 189.181C225.802 183.478 214.597 183.058 204.226 185.302C194.807 188.437 187.073 194.449 181.422 202.61C179.824 205.868 178.559 209.168 177.422 212.61C177.092 213.6 176.762 214.59 176.422 215.61C175.751 224.486 176.188 231.697 179.547 240.024C180.474 242.766 180.724 244.739 180.422 247.61C176.846 251.782 172.99 252.182 167.855 253.059C162.169 254.346 158.665 257.977 155.422 262.61C152.404 267.604 152.841 272.959 153.422 278.61C155.039 284.226 158.284 288.701 163.422 291.61C166.266 292.729 169.111 293.717 172.031 294.618C174.422 295.61 174.422 295.61 176.422 298.61C176.798 302.367 176.586 303.364 174.422 306.61C172.355 307.716 172.355 307.716 169.859 308.798C160.456 313.357 153.799 320.095 149.422 329.61C145.976 339.686 145.888 351.286 150.094 361.149C155.872 371.857 164.527 379.723 176.117 383.485C177.879 384.007 179.646 384.513 181.418 384.997C183.422 385.61 183.422 385.61 184.422 386.61C184.888 391.862 184.37 395.74 182.422 400.61C181.202 409.308 184.3 416.749 189.047 423.923C193.38 429.398 200.811 433.065 207.734 433.884C214.562 434.142 218.912 432.692 224.988 429.684C227.422 428.61 227.422 428.61 230.672 428.36C234.111 429.923 236.076 432.079 238.625 434.825C244.031 440.196 250.13 441.753 257.547 441.923C265.174 441.863 270.682 439.82 277.172 435.985C285.722 426.96 287.775 417.06 287.672 405.048C287.68 404.141 287.687 403.234 287.695 402.3C287.67 393.489 286.24 386.522 279.816 379.974C273.982 374.655 268.721 373.164 260.875 373.364C254.156 374.038 248.867 377.734 244.422 382.61C241.569 386.695 240.296 390.406 239.922 395.36C239.678 398.419 239.465 399.541 237.797 402.235C235.422 403.61 235.422 403.61 231.797 403.548C228.422 402.61 228.422 402.61 226.422 399.61C225 390.581 227.981 382.311 232.984 374.923C238.916 367.243 246.721 361.355 256.422 359.61C267.434 358.549 276.075 360.963 285.422 366.61C286.082 366.61 286.742 366.61 287.422 366.61C287.492 340.689 287.545 314.768 287.577 288.846C287.593 276.81 287.614 264.774 287.648 252.738C287.678 242.247 287.697 231.755 287.704 221.264C287.708 215.709 287.717 210.155 287.739 204.601C287.759 199.37 287.766 194.139 287.761 188.908C287.762 186.992 287.768 185.075 287.779 183.158C287.794 180.534 287.791 177.91 287.783 175.285C287.791 174.533 287.8 173.781 287.809 173.007C287.754 166.43 286.151 160.536 282.797 154.86C277.83 150.155 272.852 147.325 265.922 146.985C258.547 147.367 252.838 150.293 248.422 156.235ZM305.715 155.614C301.858 161.471 301.299 166.677 301.261 173.644C301.256 174.333 301.251 175.021 301.246 175.731C301.231 177.998 301.224 180.265 301.219 182.532C301.216 183.311 301.213 184.089 301.21 184.891C301.195 189.012 301.186 193.134 301.182 197.255C301.176 201.492 301.152 205.73 301.124 209.967C301.105 213.243 301.1 216.518 301.098 219.794C301.095 221.355 301.087 222.916 301.074 224.477C300.986 235.707 301.241 245.31 309.332 253.88C313.95 257.703 319.103 259.325 324.984 260.048C331.977 259.158 338.777 257.255 343.422 251.61C347.07 245.915 349.004 240.315 349.965 233.641C350.422 231.61 350.422 231.61 352.422 229.61C358.557 228.941 358.557 228.941 361.359 231.11C364.25 237.911 361.931 244.224 359.559 250.841C356.062 259.361 349.082 266.495 340.716 270.408C335.651 272.506 331.131 273.153 325.672 273.11C324.891 273.109 324.111 273.107 323.306 273.106C316.243 272.921 310.669 270.867 304.422 267.61C303.432 267.28 302.442 266.95 301.422 266.61C301.375 285.899 301.34 305.188 301.318 324.477C301.308 333.434 301.294 342.39 301.271 351.347C301.251 359.155 301.238 366.963 301.234 374.772C301.231 378.905 301.225 383.037 301.21 387.17C301.197 391.064 301.193 394.958 301.196 398.852C301.195 400.277 301.191 401.702 301.183 403.128C301.122 415.105 302.309 423.698 309.422 433.61C311.838 436.062 311.838 436.062 314.422 437.61C315.659 438.446 315.659 438.446 316.922 439.298C323.99 443.009 333.759 442.691 341.234 440.485C346.139 437.6 350.79 434.539 354.484 430.173C356.422 428.61 356.422 428.61 359.609 428.61C362.691 429.418 364.978 430.3 367.797 431.673C375.067 435.043 381.612 434.068 389.066 431.583C396.352 428.575 401.139 423.615 404.394 416.477C406.62 410.537 407.84 404.157 405.422 398.11C403.913 394.339 404.264 390.623 404.422 386.61C405.712 386.024 407.004 385.442 408.297 384.86C409.121 384.488 409.944 384.115 410.793 383.731C413.422 382.61 413.422 382.61 415.894 381.77C425.139 378.591 432.719 372.22 437.461 363.61C437.937 362.62 437.937 362.62 438.422 361.61C438.897 360.651 438.897 360.651 439.383 359.673C442.992 350.931 442.763 339.573 439.859 330.673C435.309 320.038 427.706 313.178 417.484 308.173C413.974 306.293 413.566 306.021 412.172 302.048C412.422 298.61 412.422 298.61 413.359 296.298C415.864 294.249 418.241 293.82 421.363 293.161C426.747 291.721 430.362 288.09 433.422 283.61C436.056 278.018 436.18 272.689 435.422 266.61C433.214 260.599 428.956 256.642 423.422 253.61C420.06 252.209 417.299 251.596 413.672 251.173C412.063 250.894 412.063 250.894 410.422 250.61C408.422 247.61 408.422 247.61 408.609 244.485C409.224 241.554 409.894 239.388 410.984 236.673C414.215 227.316 413.543 216.025 409.68 207.001C404.302 196.78 396.846 189.907 385.84 186.337C385.042 186.097 384.244 185.857 383.422 185.61C381.937 185.115 381.937 185.115 380.422 184.61C369.082 183.762 359.72 184.887 350.172 191.423C347.13 193.457 346.469 193.61 342.547 193.61C339.422 192.61 339.422 192.61 337.422 189.61C337.629 184.11 339.225 181.006 342.422 176.61C344.416 170.629 344.421 163.936 341.734 158.173C338.608 152.835 334.36 150.097 328.586 148.161C319.583 145.87 311.827 148.439 305.715 155.614Z" fill="#050505"/>
<path d="M362.422 332.61C365.627 332.335 367.97 331.365 370.922 330.048C378.588 327.106 387.746 327.619 395.352 330.552C399.9 332.877 403.821 336.01 407.422 339.61C407.854 343.502 408 345.742 405.797 349.048C402.625 351.135 401.168 351.271 397.422 350.61C395.497 349.464 393.778 348.208 392.035 346.802C388.482 344.177 384.977 344.506 380.734 344.548C379.555 344.557 378.375 344.566 377.16 344.575C376.257 344.587 375.353 344.598 374.422 344.61C374.917 345.6 375.412 346.59 375.922 347.61C378.749 355.312 378.792 364.36 376.285 372.138C373.616 377.805 370.891 382.42 365.422 385.61C361.674 386.285 360.192 386.137 357.047 383.985C354.881 380.82 354.755 379.39 355.422 375.61C356.569 373.685 357.824 371.966 359.231 370.223C362.52 365.769 361.936 359.863 361.422 354.61C360.135 350.37 357.829 347.934 354.359 345.173C349.574 342.826 344.605 342.603 339.422 343.61C336.928 344.98 334.759 346.545 332.488 348.255C330.422 349.61 330.422 349.61 326.609 350.298C323.422 349.61 323.422 349.61 320.984 347.423C319.265 344.328 318.646 343.059 319.422 339.61C329.751 326.699 348.542 323.357 362.422 332.61Z" fill="#050505"/>
<path d="M238.422 219.61C244.523 224.072 247.938 232.387 249.422 239.61C250.368 248.31 248.578 256.6 243.109 263.548C242.552 264.228 241.996 264.909 241.422 265.61C241.763 269.114 243.159 270.588 245.734 272.86C251.528 278.392 254.437 285.057 254.797 293.048C254.743 296.658 254.45 297.567 252.359 300.735C249.422 302.61 249.422 302.61 245.797 302.735C242.422 301.61 242.422 301.61 240.609 299.61C239.32 296.352 238.58 293.187 237.879 289.763C237.329 287.175 236.692 284.939 235.422 282.61C233.572 281.352 233.572 281.352 231.422 280.61C230.883 280.27 230.344 279.93 229.789 279.579C226.395 278.19 223.033 278.357 219.422 278.298C209.018 277.902 199.934 275.122 192.422 267.61C190.858 264.482 191.066 262.054 191.422 258.61C193.547 256.11 193.547 256.11 196.422 254.61C201.991 254.492 204.442 257.15 208.422 260.61C210.329 261.525 210.329 261.525 212.422 261.61C214 261.765 214 261.765 215.609 261.923C220.487 261.523 224.283 260.228 228.422 257.61C232.487 252.63 233.816 248.338 233.785 242.036C233.126 237.638 230.553 233.741 227.422 230.61C226.965 223.525 226.965 223.525 228.422 220.61C231.775 218.934 234.853 218.682 238.422 219.61Z" fill="#070707"/>
</svg>
